<svg xmlns="http://www.w3.org/2000/svg" viewBox="0 0 64 64" role="img" aria-labelledby="title">
  <title>Buy Me a Coffee</title>
  <circle cx="32" cy="32" r="30" fill="#ffdd66"/>
  <path fill="#111827" d="M18 22h27a3 3 0 0 1 3 3v5h2a7 7 0 0 1 0 14h-2v1a9 9 0 0 1-9 9H24a9 9 0 0 1-9-9V25a3 3 0 0 1 3-3Zm30 13v4h2a2 2 0 0 0 0-4h-2ZM23 30v15a1 1 0 0 0 1 1h15a1 1 0 0 0 1-1V30H23Z"/>
  <path fill="#111827" d="M25 12c0-2 3-2 3 0 0 3-2 3-2 5 0 2 3 2 3 0 0-3 2-3 2-5 0-6-6-6-6 0Zm10 0c0-2 3-2 3 0 0 3-2 3-2 5 0 2 3 2 3 0 0-3 2-3 2-5 0-6-6-6-6 0Z"/>
</svg>
